<?xml version="1.0" encoding="utf-8"?>
<!-- Generator: Adobe Illustrator 21.0.2, SVG Export Plug-In . SVG Version: 6.00 Build 0)  -->
<svg version="1.1" id="Calque_1" xmlns="http://www.w3.org/2000/svg" xmlns:xlink="http://www.w3.org/1999/xlink" x="0px" y="0px"
	 viewBox="0 0 527 382.4" style="enable-background:new 0 0 527 382.4;" xml:space="preserve">
<style type="text/css">
	.st0{clip-path:url(#SVGID_2_);fill:none;stroke:#FFFFFF;stroke-miterlimit:10;}
</style>
<g>
	<defs>
		<rect id="SVGID_1_" x="0.1" y="0.1" width="526.9" height="382.3"/>
	</defs>
	<clipPath id="SVGID_2_">
		<use xlink:href="#SVGID_1_"  style="overflow:visible;"/>
	</clipPath>
	<path class="st0" d="M487.8,342.1V39.4c0-1.1-0.9-2-2-2H82.6c-1.1,0-2,0.9-2,2v302.7c0,1.1,0.9,2,2,2h403.2
		C486.9,344.1,487.8,343.2,487.8,342.1z M526.5,363.7c0,10-8.2,18.2-18.2,18.2H18.7c-10,0-18.2-8.2-18.2-18.2v-345
		c0-10,8.2-18.2,18.2-18.2h489.6c10,0,18.2,8.2,18.2,18.2v344.9"/>
	<circle class="st0" cx="45.2" cy="202.5" r="16.7"/>
</g>
</svg>
