<svg id="Calque_1" xmlns="http://www.w3.org/2000/svg" xmlns:xlink="http://www.w3.org/1999/xlink" viewBox="0 0 47.8 50.6"><circle class="st0" cx="33.9" cy="19.5" r="2.8"/><path class="st0 react-logo" d="M43.6 15.1c-.4-.2-.8-.3-1.3-.5.1-.5.2-.9.2-1.3.3-3-.3-5.1-1.8-5.9-1.5-.9-3.7-.3-6 1.5-.3.2-.6.5-.9.8-.3-.3-.6-.5-.9-.8-2.4-1.8-4.5-2.3-6-1.4-1.8 1-2.3 3.7-1.6 7.1-3.3 1.1-5.4 2.9-5.4 4.9 0 2.1 2.1 3.9 5.5 5-.1.5-.2.9-.2 1.3-.3 3 .3 5.1 1.8 5.9.5.3 1 .4 1.6.4 1.3 0 2.8-.6 4.4-1.9.3-.2.6-.5.9-.8 1.9 1.7 3.8 2.6 5.4 2.6.6 0 1.1-.1 1.6-.4 1.8-1 2.3-3.7 1.6-7.1.4-.1.8-.3 1.1-.4 2.8-1.1 4.3-2.7 4.3-4.5 0-1.7-1.5-3.4-4.3-4.5zm-8.2-5.5c2-1.5 3.8-2 4.9-1.4 1.1.6 1.6 2.4 1.3 4.9 0 .4-.1.8-.2 1.1-1.2-.4-2.6-.6-4.1-.8-.9-1.2-1.8-2.3-2.8-3.3.3-.1.6-.3.9-.5zm3 12.5c-.5.9-1 1.7-1.6 2.5-1 .1-2 .1-3 .1s-2-.1-2.9-.2c-.5-.8-1.1-1.6-1.6-2.4-.5-.9-.9-1.7-1.3-2.6.4-.9.8-1.7 1.3-2.6.5-.9 1-1.7 1.6-2.5 1-.1 2-.1 3-.1s2 .1 2.9.2c.5.8 1.1 1.6 1.6 2.4.5.9.9 1.7 1.3 2.6-.4.8-.8 1.7-1.3 2.6zm1.8-1.4c.4 1.1.8 2.1 1 3.1-1 .3-2 .5-3.1.6.4-.6.8-1.2 1.2-1.9l.9-1.8zM33.9 28c-.7-.7-1.5-1.5-2.2-2.4.7 0 1.4.1 2.1.1.7 0 1.5 0 2.2-.1-.7.9-1.4 1.7-2.1 2.4zm-4.3-3.7c-1.1-.2-2.1-.4-3.1-.7.2-1 .6-2 1-3 .3.6.6 1.2 1 1.9.3.7.7 1.3 1.1 1.8zm-2.1-6.1c-.4-1.1-.8-2.1-1-3.1 1-.3 2-.5 3.1-.6-.4.6-.8 1.2-1.2 1.9l-.9 1.8zm6.3-7.3c.7.7 1.5 1.5 2.2 2.4-.7-.1-1.4-.1-2.1-.1h-.3c-.6 0-1.3 0-1.9.1.7-.9 1.4-1.7 2.1-2.4zm5.4 5.5c-.4-.6-.7-1.2-1.1-1.8 1.1.2 2.1.4 3.1.7-.2 1-.6 2-1 3-.3-.7-.6-1.3-1-1.9zM27.4 8.2c.3-.2.7-.3 1.1-.3 1 0 2.4.6 3.8 1.6.3.2.5.4.8.7-.9.9-1.9 2-2.7 3.2-1.5.2-2.9.4-4.1.8-.6-2.9-.3-5.2 1.1-6zm-6.5 11.1c0-1.6 1.8-3 4.6-3.9.3 1.3.8 2.6 1.4 4-.6 1.3-1 2.6-1.4 3.9-2.8-.9-4.7-2.4-4.6-4zm11.4 10.1c-2 1.5-3.8 2-4.9 1.4s-1.6-2.4-1.3-4.9c0-.4.1-.8.2-1.1 1.2.4 2.6.6 4 .8.9 1.2 1.8 2.3 2.8 3.3-.2 0-.5.3-.8.5zm8 1.3c-1.4.8-3.5-.1-5.7-2 .9-.9 1.9-2 2.7-3.2 1.5-.2 2.8-.4 4.1-.8.6 3 .3 5.3-1.1 6zm2.9-7.6c-.3.1-.6.2-1 .4-.3-1.3-.8-2.6-1.4-4 .6-1.3 1-2.6 1.4-3.9.4.1.7.3 1.1.4 2.3 1 3.6 2.3 3.6 3.6-.1 1.3-1.4 2.6-3.7 3.5z"/><defs><path id="SVGID_1_" d="M0 0h47.8v50.6H0z"/></defs><clipPath id="SVGID_2_"><use xlink:href="#SVGID_1_" overflow="visible"/></clipPath><path class="st1" d="M22.4 5H4.8c-.2 0-.3.1-.3.3v34.3c0 .2.2.3.4.3h17.6c.2 0 .4-.2.4-.3V5.3c-.1-.2-.3-.3-.5-.3m-6.5 40.1c0 1.2-1.1 2.3-2.4 2.3-1.3 0-2.4-1-2.4-2.3 0-1.2 1.1-2.3 2.4-2.3 1.4.1 2.4 1.1 2.4 2.3M22.7.5H4.4C2.2.5.5 2.2.5 4.2v42.1c0 2.1 1.8 3.7 3.9 3.7h18.3c2.2 0 3.9-1.7 3.9-3.7V4.2c.1-2-1.7-3.7-3.9-3.7"/><path class="st2" d="M22.4 5H4.8c-.2 0-.3.1-.3.3v34.3c0 .2.2.3.4.3h17.6c.2 0 .4-.2.4-.3V5.3c-.1-.2-.3-.3-.5-.3zm-6.5 40.1c0 1.2-1.1 2.3-2.4 2.3-1.3 0-2.4-1-2.4-2.3 0-1.2 1.1-2.3 2.4-2.3 1.4.1 2.4 1.1 2.4 2.3zM22.7.5H4.4C2.2.5.5 2.2.5 4.2v42.1c0 2.1 1.8 3.7 3.9 3.7h18.3c2.2 0 3.9-1.7 3.9-3.7V4.2c.1-2-1.7-3.7-3.9-3.7z"/></svg>
