<svg id="Calque_1" xmlns="http://www.w3.org/2000/svg" xmlns:xlink="http://www.w3.org/1999/xlink" viewBox="0 0 76.6 53.8"><defs><path id="SVGID_1_" d="M0 0h76.6v53.8H0z"/></defs><clipPath id="SVGID_2_"><use xlink:href="#SVGID_1_" overflow="visible"/></clipPath><path class="st0" d="M45.6 52.1c-.2-.2-2.1-1.8-2.5-2.5-.4-.7-.8-7.1-.8-7.1H27.8s-.3 6.4-.7 7.1c-.4.7-2.3 2.4-2.5 2.5-.2.2-.5 1.1.8 1.2 1.3.1 18.3.1 19.6 0 1.2-.1.8-1 .6-1.2zM4.2 4c-.1 0-.2.1-.2.2v34.3c0 .1.1.2.2.2h61.5c.1 0 .2-.1.2-.2V4.2c.1-.1 0-.2-.2-.2H4.2zM67.4.5H2.5c-1.1 0-2 .9-2 2v38c0 1.1.9 2 2 2h64.9c1.1 0 2-.9 2-2v-38c0-1.1-.9-2-2-2z"/><path class="st1" d="M44.3 15.6h26v33h-26z"/><defs><path id="SVGID_3_" d="M0 0h76.6v53.8H0z"/></defs><clipPath id="SVGID_4_"><use xlink:href="#SVGID_3_" overflow="visible"/></clipPath><path class="st2" d="M69.4 17H45.2c-.1 0-.1.1-.1.1v30.1c0 .1.1.1.1.1h24.2c.1 0 .1-.1.1-.1v-30c0-.1 0-.2-.1-.2m1.6-2.9c.7 0 1.4.6 1.4 1.4V52c0 .7-.6 1.4-1.4 1.4H43.7c-.7 0-1.4-.6-1.4-1.4V15.5c0-.7.6-1.4 1.4-1.4H71"/><path class="st3" d="M69.4 17H45.2c-.1 0-.1.1-.1.1v30.1c0 .1.1.1.1.1h24.2c.1 0 .1-.1.1-.1v-30c0-.1 0-.2-.1-.2zm1.6-2.9c.7 0 1.4.6 1.4 1.4V52c0 .7-.6 1.4-1.4 1.4H43.7c-.7 0-1.4-.6-1.4-1.4V15.5c0-.7.6-1.4 1.4-1.4H71"/><path class="st2" d="M58.6 50c0 .7-.6 1.2-1.2 1.2-.7 0-1.2-.6-1.2-1.2 0-.7.6-1.2 1.2-1.2s1.2.5 1.2 1.2"/><circle class="st3" cx="57.3" cy="50" r="1.2"/><path class="st1" d="M66.5 47.5h6v5h-6z"/><defs><path id="SVGID_5_" d="M0 0h76.6v53.8H0z"/></defs><clipPath id="SVGID_6_"><use xlink:href="#SVGID_5_" overflow="visible"/></clipPath><path class="st4" d="M74.1 30.7h-8.4c-.1 0-.2.1-.2.2v17.3c0 .1.1.2.2.2h8.4c.1 0 .2-.1.2-.2V30.8c0-.1-.1-.1-.2-.1M71 50.9c0 .6-.5 1.1-1.1 1.1-.6 0-1.1-.5-1.1-1.1 0-.6.5-1.1 1.1-1.1.6-.1 1.1.4 1.1 1.1m3.3-22.5h-8.7c-1 0-1.9.8-1.9 1.9v21.2c0 1 .8 1.9 1.9 1.9h8.7c1 0 1.9-.8 1.9-1.9V30.3c0-1.1-.9-1.9-1.9-1.9"/><path class="st5" d="M74.1 30.7h-8.4c-.1 0-.2.1-.2.2v17.3c0 .1.1.2.2.2h8.4c.1 0 .2-.1.2-.2V30.8c0-.1-.1-.1-.2-.1zM71 50.9c0 .6-.5 1.1-1.1 1.1-.6 0-1.1-.5-1.1-1.1 0-.6.5-1.1 1.1-1.1.6-.1 1.1.4 1.1 1.1zm3.3-22.5h-8.7c-1 0-1.9.8-1.9 1.9v21.2c0 1 .8 1.9 1.9 1.9h8.7c1 0 1.9-.8 1.9-1.9V30.3c0-1.1-.9-1.9-1.9-1.9z"/></svg>
