<svg xmlns="http://www.w3.org/2000/svg" viewBox="0 0 273.5 236.8"><path class="st0 st6" d="M133.2 68v.5c13.7.1 26.2 5.6 35.2 14.6l.4-.4c-9.1-9-21.7-14.7-35.6-14.7m-.5 0c-13.9.1-26.4 5.7-35.6 14.7l.4.4c9.1-9 21.5-14.5 35.2-14.6V68zm-36 15.1c-9 9.1-14.7 21.7-14.7 35.6h.5c.1-13.7 5.6-26.2 14.6-35.2l-.4-.4zm72.5 0l-.4.4c9 9.1 14.5 21.5 14.6 35.2h.5c0-13.9-5.7-26.5-14.7-35.6m14.7 36.1h-.5c-.1 13.7-5.6 26.2-14.6 35.2l.4.4c9-9.1 14.7-21.7 14.7-35.6m-101.4 0H82c.1 13.9 5.7 26.4 14.7 35.6l.4-.4c-9-9-14.5-21.5-14.6-35.2m85.9 35.6c-9.1 9-21.5 14.5-35.2 14.6v.5c13.9-.1 26.4-5.7 35.6-14.7l-.4-.4zm-70.9 0l-.4.4c9.2 9.1 21.7 14.7 35.6 14.7v-.5c-13.8-.1-26.2-5.6-35.2-14.6m35.7-69.9v.5c9.1.1 17.3 3.7 23.3 9.6l.4-.4c-6.1-5.9-14.5-9.7-23.7-9.7m-.5 0c-9.2.1-17.5 3.8-23.6 9.8l.4.4c6-5.9 14.2-9.6 23.3-9.6v-.6zm-24 10.1c-6 6.1-9.7 14.4-9.8 23.6h.5c.1-9.1 3.7-17.3 9.6-23.3l-.3-.3zm48.5 0l-.4.4c5.9 6 9.6 14.2 9.6 23.3h.5c0-9.2-3.7-17.6-9.7-23.7m9.8 24.2h-.5c-.1 9.1-3.7 17.3-9.6 23.3l.4.4c5.9-6.1 9.6-14.5 9.7-23.7m-67.6 0h-.5c.1 9.2 3.8 17.5 9.8 23.6l.4-.4c-6-5.9-9.6-14.1-9.7-23.2m57.1 23.7c-6 5.9-14.2 9.6-23.3 9.6v.5c9.2-.1 17.6-3.8 23.6-9.8l-.3-.3zm-47.1 0l-.4.4c6.1 6 14.4 9.7 23.6 9.8v-.5c-9-.2-17.2-3.8-23.2-9.7m23.8-41.1v.5c4.4.1 8.4 1.8 11.3 4.7l.4-.4c-3-2.9-7.1-4.7-11.7-4.8m-.5 0c-4.5.1-8.7 1.9-11.7 4.8l.4.4c2.9-2.8 6.9-4.6 11.3-4.7v-.5zm-12.1 5.2c-2.9 3-4.8 7.1-4.8 11.7h.5c.1-4.4 1.8-8.4 4.7-11.3l-.4-.4zm24.7 0l-.4.4c2.8 2.9 4.6 6.9 4.7 11.3h.5c-.1-4.6-1.9-8.7-4.8-11.7m4.8 12.2h-.5c-.1 4.4-1.8 8.4-4.7 11.3l.4.4c2.9-3 4.7-7.1 4.8-11.7m-33.8 0h-.5c.1 4.5 1.9 8.7 4.8 11.7l.4-.4c-2.9-2.9-4.6-6.9-4.7-11.3m28.2 11.7c-2.9 2.8-6.9 4.6-11.3 4.7v.5c4.5-.1 8.7-1.9 11.7-4.8l-.4-.4zm-23.1 0l-.4.4c3 2.9 7.1 4.8 11.7 4.8v-.5c-4.4-.1-8.4-1.9-11.3-4.7"/><path class="st7" d="M65.1352 51.48996l.35355-.35355 135.26823 135.26823-.35355.35355z"/><g class="st0"><path class="st8" d="M217.5 119h-.3c0 23.3-9.4 44.3-24.7 59.6-15.2 15.2-36.3 24.7-59.6 24.7s-44.3-9.4-59.6-24.7c-15.2-15.2-24.7-36.3-24.7-59.6S58 74.7 73.3 59.4c15.2-15.2 36.3-24.7 59.6-24.7s44.3 9.4 59.6 24.7c15.2 15.2 24.7 36.3 24.7 59.6h.6c0-46.8-38-84.8-84.8-84.8s-84.8 38-84.8 84.8 38 84.8 84.8 84.8 84.8-38 84.8-84.8h-.3z"/><path class="st8" d="M200.6 119h-.3c0 18.6-7.5 35.4-19.7 47.6-12.2 12.2-29 19.7-47.6 19.7s-35.4-7.5-47.6-19.7c-12.2-12.2-19.7-29-19.7-47.6s7.5-35.4 19.7-47.6c12.2-12.2 29-19.7 47.6-19.7s35.4 7.5 47.6 19.7c12.2 12.2 19.7 29 19.7 47.6h.6c0-37.5-30.4-67.9-67.9-67.9S65.1 81.5 65.1 119s30.4 67.9 67.9 67.9 67.9-30.4 67.9-67.9h-.3z"/></g><path class="st7" d="M132.7 23.3h.5v191.3h-.5z"/><path class="st7" d="M65.1351 186.40474L200.40333 51.13651l.35355.35355L65.48865 186.75829z"/><path class="st7" d="M37.3 118.7h191.3v.5H37.3z"/><path class="st9" d="M129.1 23.7h7.8v-.5h-7.8"/><path class="st7" d="M129.1 214.3h7.7v.5h-7.7z"/><path class="st9" d="M129.1 214.9h7.8v-.6h-7.8"/><path class="st7" d="M228.3 115.2h.5v7.7h-.5z"/><path class="st9" d="M228.3 115.2v7.7h.5v-7.7"/><path class="st7" d="M37.2 115.2h.5v7.7h-.5z"/><path class="st9" d="M37.2 115.2v7.7h.5v-7.7"/><path class="st7" d="M203.1 183.7l-5.4 5.5.3.3 5.5-5.4"/><path class="st9" d="M203.1 183.7l-5.4 5.5.3.3 5.5-5.4"/><path class="st7" d="M68 48.5L62.5 54l.4.4 5.4-5.5"/><path class="st9" d="M68 48.5L62.5 54l.4.4 5.4-5.5"/><path class="st7" d="M68.3 189.2l-5.4-5.5-.4.4 5.5 5.4"/><path class="st9" d="M68.3 189.2l-5.4-5.5-.4.4 5.5 5.4"/><path class="st7" d="M203.5 54l-5.5-5.5-.3.4 5.4 5.5"/><path class="st9" d="M203.5 54l-5.5-5.5-.3.4 5.4 5.5"/><text transform="translate(0 124.723)" class="st0 st10"><tspan x="0" y="0" class="st1 st2 st11">S</tspan><tspan x="8.7" y="0" class="st1 st2 st11">E</tspan><tspan x="17.1" y="0" class="st1 st2 st11">O</tspan></text><text transform="translate(235.85 124.723)" class="st0"><tspan x="0" y="0" class="st1 st2 st11">C</tspan><tspan x="11" y="0" class="st1 st2 st11">S</tspan><tspan x="19.5" y="0" class="st1 st2 st11">S3</tspan></text><text transform="translate(203.787 46.965)" class="st0"><tspan x="0" y="0" class="st1 st2 st11">H</tspan><tspan x="12" y="0" class="st1 st2 st11">T</tspan><tspan x="21.9" y="0" class="st1 st2 st11">ML5</tspan></text><text transform="translate(99.717 14.365)" class="st0 st12"><tspan x="0" y="0" class="st1 st2 st11">R</tspan><tspan x="9.4" y="0" class="st1 st2 st11">eac</tspan><tspan x="34.3" y="0" class="st1 st2 st11">t</tspan><tspan x="40.5" y="0" class="st1 st2 st11">/RN</tspan></text><text transform="translate(5.245 201.198)" class="st0"><tspan x="0" y="0" class="st1 st2 st11">P</tspan><tspan x="9" y="0" class="st1 st2 st11">r</tspan><tspan x="14.8" y="0" class="st1 st2 st11">oduct</tspan></text><text transform="translate(11.144 218.198)" class="st0 st1 st2 st11">Design</text><text transform="translate(95.334 233.43)" class="st0 st13"><tspan x="0" y="0" class="st1 st2 st11">U</tspan><tspan x="11.6" y="0" class="st1 st2 st11">X Design</tspan></text><text transform="translate(3.332 41.907)" class="st0"><tspan x="0" y="0" class="st1 st2 st11 st14">W</tspan><tspan x="16.2" y="0" class="st1 st2 st11">o</tspan><tspan x="25.2" y="0" class="st1 st2 st11">r</tspan><tspan x="31" y="0" class="st1 st2 st11">d</tspan><tspan x="40.1" y="0" class="st1 st2 st11">P</tspan><tspan x="49.1" y="0" class="st1 st2 st11">r</tspan><tspan x="54.9" y="0" class="st1 st2 st11">e</tspan><tspan x="63.4" y="0" class="st1 st2 st11">s</tspan><tspan x="70.8" y="0" class="st1 st2 st11">s</tspan></text><path class="st0 st15 st16" d="M85.1 71.2l47.8-19.9 54.3 13.5 21.9 54.4L181 167l-47.8 19.5-42.8-25-33.5-42.4"/><text transform="translate(203.786 204.195)" class="st0 st1 st2 st11">ES6 JS</text></svg>
