<?xml version="1.0" encoding="utf-8"?>
<!-- Generator: Adobe Illustrator 21.0.2, SVG Export Plug-In . SVG Version: 6.00 Build 0)  -->
<svg version="1.1" id="Calque_1" xmlns="http://www.w3.org/2000/svg" xmlns:xlink="http://www.w3.org/1999/xlink" x="0px" y="0px"
	 viewBox="0 0 493 383" style="enable-background:new 0 0 493 383;" xml:space="preserve">
<style type="text/css">
	.st0{clip-path:url(#SVGID_2_);fill:none;stroke:#FFFFFF;stroke-miterlimit:10;}
</style>
<g>
	<defs>
		<rect id="SVGID_1_" x="0.3" y="0.4" width="492.4" height="382.3"/>
	</defs>
	<clipPath id="SVGID_2_">
		<use xlink:href="#SVGID_1_"  style="overflow:visible;"/>
	</clipPath>
	<path class="st0" d="M323.8,373.3c-1.3-1.1-15.2-13.4-18.3-18.5c-3.1-5.1-5.9-30.4-5.9-30.4H194.6c0,0-2.2,25.3-5.3,30.4
		c-3.1,5.1-16.9,17.3-18.3,18.5c-1.3,1.1-3.9,7.7,5.5,8.4c9.4,0.7,132.4,0.7,141.8,0C327.7,381,325.1,374.4,323.8,373.3z M24.2,22.1
		c-0.9,0-1.7,0.7-1.7,1.7v276.8c0,0.9,0.7,1.7,1.7,1.7h445.3c0.9,0,1.7-0.7,1.7-1.7V23.8c0-0.9-0.7-1.7-1.7-1.7H24.2z M477.6,0.8
		H15.4C7.3,0.8,0.7,7.4,0.7,15.5v294.2c0,8.1,6.6,14.7,14.7,14.7h462.1c8.1,0,14.7-6.6,14.7-14.7V15.5
		C492.3,7.4,485.7,0.8,477.6,0.8z"/>
</g>
</svg>
