<?xml version="1.0" encoding="utf-8"?>
<!-- Generator: Adobe Illustrator 21.0.2, SVG Export Plug-In . SVG Version: 6.00 Build 0)  -->
<svg version="1.1" id="Calque_1" xmlns="http://www.w3.org/2000/svg" xmlns:xlink="http://www.w3.org/1999/xlink" x="0px" y="0px"
	 viewBox="0 0 183 383" style="enable-background:new 0 0 183 383;" xml:space="preserve">
<style type="text/css">
	.st0{clip-path:url(#SVGID_2_);fill:none;stroke:#FFFFFF;stroke-width:1;stroke-miterlimit:10;}
</style>
<g>
	<g>
		<defs>
			<rect id="SVGID_1_" x="0.3" y="0.4" width="182.4" height="382.3"/>
		</defs>
		<clipPath id="SVGID_2_">
			<use xlink:href="#SVGID_1_"  style="overflow:visible;"/>
		</clipPath>
		<path class="st0" d="M104.7,17.1H78c-2.3,0-4.2,1.6-4.2,3.6s1.9,3.6,4.2,3.6h26.7c2.3,0,4.2-1.6,4.2-3.6
			C108.8,18.8,107,17.1,104.7,17.1z M107.9,350.4c0,9.1-7.4,16.4-16.4,16.4c-9.1,0-16.4-7.4-16.4-16.4c0-9.1,7.4-16.4,16.4-16.4
			C100.6,334,107.9,341.3,107.9,350.4z M154.9,0.8H28.1C13,0.8,0.7,13,0.7,28.1v326.7c0,15.1,12.3,27.4,27.4,27.4h126.8
			c15.1,0,27.4-12.3,27.4-27.4V28.1C182.3,13,170,0.8,154.9,0.8z"/>
	</g>
</g>
</svg>
