<?xml version="1.0" encoding="utf-8"?>
<!-- Generator: Adobe Illustrator 21.0.2, SVG Export Plug-In . SVG Version: 6.00 Build 0)  -->
<svg version="1.1" id="Calque_1" xmlns="http://www.w3.org/2000/svg" xmlns:xlink="http://www.w3.org/1999/xlink" x="0px" y="0px"
	 viewBox="0 0 277.7 382.7" style="enable-background:new 0 0 277.7 382.7;" xml:space="preserve">
<style type="text/css">
	.st0{clip-path:url(#SVGID_2_);fill:none;stroke:#FFFFFF;stroke-miterlimit:10;}
</style>
<g>
	<defs>
		<rect id="SVGID_1_" x="0.2" y="0.2" width="277.4" height="382.3"/>
	</defs>
	<clipPath id="SVGID_2_">
		<use xlink:href="#SVGID_1_"  style="overflow:visible;"/>
	</clipPath>
	<path class="st0" d="M248.4,28.6H28.7c-0.8,0-1.4,0.6-1.4,1.4v292.5c0,0.8,0.6,1.4,1.4,1.4h219.6c0.8,0,1.4-0.6,1.4-1.4V30
		C249.8,29.2,249.1,28.6,248.4,28.6z M264,0.5c7.3,0,13.2,5.9,13.2,13.2V369c0,7.3-5.9,13.2-13.2,13.2H13.7
		c-7.3,0-13.2-5.9-13.2-13.2V13.7c0-7.3,5.9-13.2,13.2-13.2h250.2"/>
	<circle class="st0" cx="147.1" cy="349.7" r="12.1"/>
</g>
</svg>
