<svg id="Calque_1" xmlns="http://www.w3.org/2000/svg" xmlns:xlink="http://www.w3.org/1999/xlink" viewBox="0 0 77.1 53.8"><defs><path id="SVGID_1_" d="M0 0h77.1v53.8H0z"/></defs><clipPath id="SVGID_2_"><use xlink:href="#SVGID_1_" overflow="visible"/></clipPath><path class="st0" d="M52.8 52.1c-.2-.2-2.1-1.8-2.5-2.5s-.8-7.1-.8-7.1H34.9s-.3 6.4-.7 7.1c-.4.7-2.3 2.4-2.5 2.5-.2.2-.5 1.1.8 1.2 1.3.1 18.3.1 19.6 0 1.2-.1.9-1 .7-1.2M11.4 4c-.1 0-.2.1-.2.2v34.3c0 .1.1.2.2.2h61.5c.1 0 .2-.1.2-.2V4.2c0-.1-.1-.2-.2-.2H11.4zM74.6.5H9.7c-1.1 0-2 .9-2 2v38c0 1.1.9 2 2 2h64.9c1.1 0 2-.9 2-2v-38c0-1.1-.9-2-2-2"/><defs><path id="SVGID_3_" d="M0 0h77.1v53.8H0z"/></defs><clipPath id="SVGID_4_"><use xlink:href="#SVGID_3_" overflow="visible"/></clipPath><path class="st1" d="M52.8 52.1c-.2-.2-2.1-1.8-2.5-2.5s-.8-7.1-.8-7.1H34.9s-.3 6.4-.7 7.1c-.4.7-2.3 2.4-2.5 2.5-.2.2-.5 1.1.8 1.2 1.3.1 18.3.1 19.6 0 1.2-.1.9-1 .7-1.2zM11.4 4c-.1 0-.2.1-.2.2v34.3c0 .1.1.2.2.2h61.5c.1 0 .2-.1.2-.2V4.2c0-.1-.1-.2-.2-.2H11.4zM74.6.5H9.7c-1.1 0-2 .9-2 2v38c0 1.1.9 2 2 2h64.9c1.1 0 2-.9 2-2v-38c0-1.1-.9-2-2-2z"/><path class="st2" d="M59.8 47.5h6v5h-6z"/><defs><path id="SVGID_5_" d="M0 0h77.1v53.8H0z"/></defs><clipPath id="SVGID_6_"><use xlink:href="#SVGID_5_" overflow="visible"/></clipPath><path class="st3" d="M67.5 30.7H59c-.1 0-.2.1-.2.2v17.3c0 .1.1.2.2.2h8.4c.1 0 .2-.1.2-.2l-.1-17.5c.1 0 0 0 0 0m-3.1 20.2c0 .6-.5 1.1-1.1 1.1s-1.1-.5-1.1-1.1.5-1.1 1.1-1.1c.5-.1 1.1.4 1.1 1.1m3.2-22.5h-8.7c-1 0-1.9.8-1.9 1.9v21.2c0 1 .8 1.9 1.9 1.9h8.7c1 0 1.9-.8 1.9-1.9V30.3c0-1.1-.9-1.9-1.9-1.9"/><defs><path id="SVGID_7_" d="M0 0h77.1v53.8H0z"/></defs><clipPath id="SVGID_8_"><use xlink:href="#SVGID_7_" overflow="visible"/></clipPath><path class="st4" d="M67.5 30.7H59c-.1 0-.2.1-.2.2v17.3c0 .1.1.2.2.2h8.4c.1 0 .2-.1.2-.2l-.1-17.5c.1 0 0 0 0 0zm-3.1 20.2c0 .6-.5 1.1-1.1 1.1s-1.1-.5-1.1-1.1.5-1.1 1.1-1.1c.5-.1 1.1.4 1.1 1.1zm3.2-22.5h-8.7c-1 0-1.9.8-1.9 1.9v21.2c0 1 .8 1.9 1.9 1.9h8.7c1 0 1.9-.8 1.9-1.9V30.3c0-1.1-.9-1.9-1.9-1.9z"/><path class="st5" d="M-4.36454 23.68706l66.83799-38.43435 26.8193 46.63922-66.83799 38.43435z"/><path class="st5" d="M0 0h77.1v53.8H0z"/><defs><path id="SVGID_9_" d="M0 0h77.1v53.8H0z"/></defs><clipPath id="SVGID_10_"><use xlink:href="#SVGID_9_" overflow="visible"/></clipPath><g class="st6"><path class="st7" d="M42.1 17.3c-1.6 0-2.8 1.3-2.8 2.8 0 1.6 1.3 2.8 2.8 2.8 1.6 0 2.8-1.3 2.8-2.8 0-1.6-1.3-2.8-2.8-2.8z"/><path class="st7 react-logo" d="M56.1 20.2c0-2.1-2.1-3.9-5.5-5 .7-3.5.2-6.2-1.6-7.3-.8-.5-1.7-.5-2.8-.3-1.2.4-2.7 1.3-4.1 2.6-.3-.3-.6-.5-.9-.7-2.4-1.8-4.5-2.3-6-1.5-1.8 1-2.2 3.7-1.6 7.1-1.8.6-3.2 1.4-4.1 2.3-.8.8-1.2 1.7-1.2 2.6 0 .9.3 1.7 1.1 2.5.9 1 2.5 1.8 4.4 2.5-.7 3.5-.2 6.2 1.6 7.2.5.3 1 .4 1.6.4.4 0 .8-.1 1.2-.2 1.3-.3 2.7-1.2 4.1-2.5 1.9 1.7 3.8 2.6 5.4 2.6.6 0 1.1-.1 1.6-.4 1.5-.9 2.1-3 1.8-5.9 0-.4-.1-.8-.2-1.2 1.8-.6 3.2-1.4 4.2-2.3.6-.7 1-1.6 1-2.5zM46.5 8.6c.8-.2 1.5-.2 2 .2 1.3.7 1.7 3 1.1 6.1-1.2-.4-2.6-.6-4.1-.8-.9-1.2-1.8-2.3-2.8-3.2 1.4-1.2 2.7-2 3.8-2.3zm2 12.7c.4 1.1.8 2.1 1 3.1-1 .3-2 .5-3.2.6.4-.6.8-1.3 1.2-1.9.4-.6.7-1.2 1-1.8zm-1.8 1.4c-.5.9-1.1 1.7-1.6 2.5-.9.1-1.9.1-2.9.1s-2-.1-2.9-.2c-.5-.8-1.1-1.6-1.5-2.4-.5-.9-.9-1.7-1.3-2.6.4-.9.8-1.8 1.3-2.7.5-.9 1-1.7 1.5-2.4 1-.1 2-.1 3-.1s1.9.1 2.9.2c.5.8 1.1 1.6 1.6 2.5.5.9.9 1.7 1.3 2.6-.5.7-.9 1.6-1.4 2.5zm-4.6 5.9c-.7-.7-1.5-1.5-2.2-2.4.7.1 1.4.1 2.1.1h2.2c-.6.8-1.3 1.6-2.1 2.3zm-4.3-3.7c-1.1-.2-2.1-.4-3-.6.2-.9.5-1.9.9-2.9.3.6.6 1.2 1 1.8.4.6.8 1.2 1.1 1.7zm-2-6c-.4-1.1-.8-2.1-1-3.1 1-.3 2-.5 3.1-.6-.4.6-.8 1.2-1.1 1.8-.4.6-.7 1.2-1 1.9zm6.3-7.4c.7.7 1.5 1.5 2.2 2.4-.7 0-1.3-.1-2-.1h-.4c-.6 0-1.2 0-1.8.1.5-.8 1.3-1.7 2-2.4zm5.4 5.5c-.4-.6-.7-1.2-1.1-1.8 1.1.2 2.1.4 3.1.6-.2.9-.6 2-1 3-.3-.5-.6-1.2-1-1.8zM35.6 8.8c.3-.2.7-.3 1.1-.3 1 0 2.4.6 3.8 1.7.3.2.5.4.8.6-.9.9-1.8 2-2.7 3.2-1.5.1-2.8.4-4.1.7-.5-2.8-.2-5.1 1.1-5.9zm-5.6 13c-.6-.6-.8-1.2-.8-1.8 0-.7.3-1.3.9-1.9.8-.8 2.1-1.5 3.6-2 .3 1.3.8 2.6 1.4 4.1-.6 1.3-1 2.6-1.3 3.9-1.6-.7-3-1.4-3.8-2.3zm7.8 9.7c-.8.2-1.5.2-2-.2-1.3-.7-1.7-3-1.1-6.1 1.2.3 2.6.6 4 .8.9 1.2 1.9 2.3 2.8 3.3-1.4 1.1-2.6 1.9-3.7 2.2zm12.1-5.1c.3 2.5-.2 4.3-1.3 4.9-1.4.8-3.5-.1-5.7-2 .9-.9 1.8-2 2.7-3.2 1.5-.1 2.9-.4 4.1-.7.1.4.1.7.2 1zm.6-2.3c-.3-1.3-.8-2.7-1.4-4.1.6-1.4 1.1-2.7 1.4-3.9 2.8 1 4.7 2.4 4.7 4 0 .7-.3 1.3-.9 1.9-1 .9-2.3 1.6-3.8 2.1z"/></g><path class="st2" d="M5.2 25.3h33v26h-33z"/><defs><path id="SVGID_11_" d="M0 0h77.1v53.8H0z"/></defs><clipPath id="SVGID_12_"><use xlink:href="#SVGID_11_" overflow="visible"/></clipPath><path class="st8" d="M36.8 50.4V26.2c0-.1-.1-.1-.1-.1H6.6c-.1 0-.1.1-.1.1v24.2c0 .1.1.1.1.1l30.2-.1c0 .1 0 .1 0 0m2.9 1.6c0 .7-.6 1.4-1.4 1.4H1.9c-.7 0-1.4-.6-1.4-1.4V24.6c0-.7.6-1.4 1.4-1.4h36.5c.7 0 1.4.6 1.4 1.4V52"/><defs><path id="SVGID_13_" d="M0 0h77.1v53.8H0z"/></defs><clipPath id="SVGID_14_"><use xlink:href="#SVGID_13_" overflow="visible"/></clipPath><path class="st9" d="M36.8 50.4V26.2c0-.1-.1-.1-.1-.1H6.6c-.1 0-.1.1-.1.1v24.2c0 .1.1.1.1.1l30.2-.1c0 .1 0 .1 0 0zm2.9 1.6c0 .7-.6 1.4-1.4 1.4H1.9c-.7 0-1.4-.6-1.4-1.4V24.6c0-.7.6-1.4 1.4-1.4h36.5c.7 0 1.4.6 1.4 1.4V52"/><defs><path id="SVGID_15_" d="M0 0h77.1v53.8H0z"/></defs><clipPath id="SVGID_16_"><use xlink:href="#SVGID_15_" overflow="visible"/></clipPath><path class="st10" d="M3.8 39.6c-.7 0-1.2-.6-1.2-1.2 0-.7.6-1.2 1.2-1.2.7 0 1.2.6 1.2 1.2.1.6-.5 1.2-1.2 1.2"/><defs><path id="SVGID_17_" d="M0 0h77.1v53.8H0z"/></defs><clipPath id="SVGID_18_"><use xlink:href="#SVGID_17_" overflow="visible"/></clipPath><circle class="st11" cx="3.8" cy="38.3" r="1.2"/></svg>
